<svg viewBox="0 0 124.854 114.893" xmlns="http://www.w3.org/2000/svg"><path d="m0 0h124.854v114.893h-124.854z" opacity="0"/><path d="m27.5879 114.893h69.6289c12.0122 0 18.4572-6.25 18.4572-18.2133v-67.4317h-8.692v67.7735c0 6.2985-3.515 9.7165-9.7164 9.7165h-69.6777c-6.3477 0-9.7656-3.418-9.7656-9.7165v-67.7735h-8.64261v67.4317c0 12.0113 6.44531 18.2133 18.40821 18.2133zm13.7695-56.4946h42.1387c2.5391 0 4.1992-1.7089 4.1992-4.2968v-1.9043c0-2.6368-1.6601-4.2481-4.1992-4.2481h-42.1387c-2.4902 0-4.1504 1.6113-4.1504 4.2481v1.9043c0 2.5879 1.6602 4.2968 4.1504 4.2968zm-30.1269-25.1953h102.3925c7.227 0 11.231-4.5898 11.231-11.7187v-9.6192c0-7.1777-4.004-11.718716-11.231-11.718716h-102.3925c-6.93362 0-11.2305 4.541016-11.2305 11.718716v9.6192c0 7.1289 4.00391 11.7187 11.2305 11.7187zm2.0019-8.1543c-3.1738 0-4.58982-1.5136-4.58982-4.7363v-7.3242c0-3.17385 1.41602-4.68752 4.58982-4.68752h98.4376c3.174 0 4.541 1.51367 4.541 4.68752v7.3242c0 3.2227-1.367 4.7363-4.541 4.7363z" fill="#fff" fill-opacity=".85"/></svg>